<svg width="24" height="25" viewBox="0 0 24 25" fill="none" xmlns="http://www.w3.org/2000/svg">
<path d="M20 19.5V16.5H7C5.34315 16.5 4 17.8431 4 19.5M8.8 22.5H16.8C17.9201 22.5 18.4802 22.5 18.908 22.282C19.2843 22.0903 19.5903 21.7843 19.782 21.408C20 20.9802 20 20.4201 20 19.3V5.7C20 4.57989 20 4.01984 19.782 3.59202C19.5903 3.21569 19.2843 2.90973 18.908 2.71799C18.4802 2.5 17.9201 2.5 16.8 2.5H8.8C7.11984 2.5 6.27976 2.5 5.63803 2.82698C5.07354 3.1146 4.6146 3.57354 4.32698 4.13803C4 4.77976 4 5.61984 4 7.3V17.7C4 19.3802 4 20.2202 4.32698 20.862C4.6146 21.4265 5.07354 21.8854 5.63803 22.173C6.27976 22.5 7.11984 22.5 8.8 22.5Z" stroke="#7F56D9" stroke-width="2" stroke-linecap="round" stroke-linejoin="round"/>
</svg>
