<svg width="19" height="20" viewBox="0 0 19 20" fill="none" xmlns="http://www.w3.org/2000/svg">
<path d="M9.50002 18.3332C14.1024 18.3332 17.8334 14.6022 17.8334 9.99984C17.8334 5.39746 14.1024 1.6665 9.50002 1.6665C4.89765 1.6665 1.16669 5.39746 1.16669 9.99984C1.16669 14.6022 4.89765 18.3332 9.50002 18.3332Z" stroke="#344054" stroke-width="1.66667" stroke-linecap="round" stroke-linejoin="round"/>
<path d="M7.41669 7.47095C7.41669 7.07321 7.41669 6.87434 7.49981 6.76332C7.57224 6.66657 7.68312 6.60603 7.80367 6.59742C7.94201 6.58754 8.10929 6.69508 8.44386 6.91016L12.3777 9.43905C12.668 9.62569 12.8132 9.719 12.8633 9.83766C12.9071 9.94134 12.9071 10.0583 12.8633 10.162C12.8132 10.2807 12.668 10.374 12.3777 10.5606L8.44386 13.0895C8.10929 13.3046 7.94201 13.4121 7.80367 13.4023C7.68312 13.3936 7.57224 13.3331 7.49981 13.2364C7.41669 13.1253 7.41669 12.9265 7.41669 12.5287V7.47095Z" stroke="#344054" stroke-width="1.66667" stroke-linecap="round" stroke-linejoin="round"/>
</svg>
