<svg width="24" height="25" viewBox="0 0 24 25" fill="none" xmlns="http://www.w3.org/2000/svg">
<path d="M4.5 22.5V17.5M4.5 7.5V2.5M2 5H7M2 20H7M13 3.5L11.2658 8.00886C10.9838 8.74209 10.8428 9.10871 10.6235 9.41709C10.4292 9.6904 10.1904 9.92919 9.91709 10.1235C9.60871 10.3428 9.24209 10.4838 8.50886 10.7658L4 12.5L8.50886 14.2342C9.24209 14.5162 9.60871 14.6572 9.91709 14.8765C10.1904 15.0708 10.4292 15.3096 10.6235 15.5829C10.8428 15.8913 10.9838 16.2579 11.2658 16.9911L13 21.5L14.7342 16.9911C15.0162 16.2579 15.1572 15.8913 15.3765 15.5829C15.5708 15.3096 15.8096 15.0708 16.0829 14.8765C16.3913 14.6572 16.7579 14.5162 17.4911 14.2342L22 12.5L17.4911 10.7658C16.7579 10.4838 16.3913 10.3428 16.0829 10.1235C15.8096 9.92919 15.5708 9.6904 15.3765 9.41709C15.1572 9.10871 15.0162 8.74209 14.7342 8.00886L13 3.5Z" stroke="#7F56D9" stroke-width="2" stroke-linecap="round" stroke-linejoin="round"/>
</svg>
